# xmcd
#
# Track frame offsets:
#	150
#	13438
#	28544
#	40739
#	57216
#	74779
#	90232
#	102293
#	117056
#	126994
#	143066
#	158952
#	178548
#	193824
#	212384
#	224600
#	240178
#	254289
#	272106
#	287559
#	305247
#	317471
#
# Disc length: 4500 seconds
#
# Revision: 2
# Processed by: cddbd v1.5.2PL0 Copyright (c) Steve Scherf et al.
# Submitted via: audiograbber 1.82.01
#
DISCID=42119216
DTITLE=Varius - Best of Coutry Hits
DYEAR=2005
DGENRE=Country
TTITLE0=Faron Young - Fraulein
TTITLE1=Glen Campbell - Rhinestone Cowboy***
TTITLE2=CCR - Have U Ever Seen The Rai
TTITLE3=You Needed Me 3 - You Needed Me 3
TTITLE4=Albert Hammond - It Never Rains In Southern California
TTITLE5=James Taylor - Fire And Rain
TTITLE6=Lynn Anderson - Hello Darling
TTITLE7=John Denver - Take Me Home Country Roads
TTITLE8=Anne Murray - Snowbird
TTITLE9=Willie Nelson - Always On My Mind
TTITLE10=Kenny Rogers - The Gambler
TTITLE11=Dan Fogelberg - Leader Of The Band
TTITLE12=Engelbert - Release Me.
TTITLE13=Don Mclean - Vincent
TTITLE14=Bobby Bare - 500 Hundred Miles Away From Home
TTITLE15=Albert Hammond - The Free Electric Band
TTITLE16=Tom Jones - Green, Green Grass Of Home
TTITLE17=Olivia Newton John - Torn Between Two Lovers
TTITLE18=Tanya Tucker - Delta Dawn
TTITLE19=Collin Raye - Love Me
TTITLE20=Anne Murray - Walk Right Back
TTITLE21=Leann Rimes - How Do I Live
EXTD=
EXTT0=
EXTT1=
EXTT2=
EXTT3=
EXTT4=
EXTT5=
EXTT6=
EXTT7=
EXTT8=
EXTT9=
EXTT10=
EXTT11=
EXTT12=
EXTT13=
EXTT14=
EXTT15=
EXTT16=
EXTT17=
EXTT18=
EXTT19=
EXTT20=
EXTT21=
PLAYORDER=
